<svg width="80" height="80" viewBox="0 0 80 80" fill="none" xmlns="http://www.w3.org/2000/svg">
<path d="M38.0242 1.69936C24.4599 2.39378 12.2073 10.2696 5.92763 22.3289C2.26546 29.3634 0.914144 37.403 2.0497 45.3352C4.0937 59.585 14.1888 71.5822 27.9574 76.127C30.8247 77.0755 33.7147 77.6627 36.9056 77.9506C38.4443 78.0861 41.7261 78.0861 43.2647 77.9506C46.4557 77.6627 49.3456 77.0755 52.2129 76.127C61.6948 72.9993 69.6267 66.2526 74.2427 57.3888C78.978 48.2879 79.8183 37.561 76.5593 27.7996C72.7552 16.4065 63.6707 7.37331 52.2129 3.59068C47.6764 2.09456 42.8503 1.45094 38.0242 1.69936ZM43.4351 2.05504C46.7168 2.36555 49.4535 2.94141 52.406 3.94071C59.0263 6.18207 64.8914 10.1962 69.4053 15.5822C74.0554 21.1207 77.0249 27.8899 77.9276 34.9753C78.1718 36.8835 78.2115 37.5893 78.2115 39.8588C78.2115 42.1284 78.1718 42.8341 77.9276 44.7424C76.7239 54.2103 71.8865 62.916 64.3861 69.115C55.6026 76.3754 43.8723 79.3056 32.5621 77.0586C22.0242 74.9696 12.8318 68.4996 7.28462 59.2576C4.33785 54.3514 2.57206 48.8638 2.04402 42.964C1.94182 41.8123 1.90776 39.0459 1.98157 37.7982C2.57774 27.6245 7.00073 18.4502 14.5919 11.6245C20.2754 6.52081 27.5884 3.17854 35.1739 2.23006C36.1051 2.11714 36.6501 2.06633 38.2399 1.95341C38.9553 1.9026 42.5607 1.976 43.4351 2.05504Z" fill="#BD0707"/>
<path d="M38.0412 4.23994C24.0511 5.03599 11.8439 13.832 6.67712 26.8341C5.46207 29.8941 4.66151 33.3042 4.33219 36.8102C4.20161 38.2611 4.20161 41.4566 4.33219 42.9075C5.01353 50.2188 7.73887 56.892 12.2924 62.4135C18.0497 69.3917 26.044 73.8913 34.9752 75.1672C36.8205 75.4326 37.9106 75.506 40.0852 75.506C42.7027 75.506 44.5877 75.3366 46.9269 74.885C58.3279 72.6944 68.0426 65.0332 72.8233 54.47C74.4472 50.885 75.4521 47.012 75.8382 42.9075C75.9688 41.4566 75.9688 38.2611 75.8382 36.8102C75.56 33.8405 74.9922 31.1531 74.0724 28.4262C71.4493 20.6803 66.1633 14.024 59.1626 9.6429C52.8829 5.71347 45.4678 3.81651 38.0412 4.23994ZM40.8744 7.76287C42.6232 7.84756 43.0377 7.89837 43.5259 8.07903C44.2584 8.35003 44.5707 8.7904 44.5707 9.54692C44.5707 10.2696 44.3095 10.6478 43.6338 10.9245L43.3329 11.043L43.5998 11.139C43.9461 11.2576 44.3549 11.6189 44.5082 11.9294C44.6729 12.2625 44.6729 12.9174 44.5139 13.3465C44.3606 13.7417 43.9688 14.1087 43.5316 14.278C42.9638 14.4869 42.4358 14.5095 40.3975 14.4135C39.3698 14.3684 38.5125 14.3176 38.5011 14.3063C38.4784 14.2837 38.6771 9.61467 38.7623 8.25405L38.7964 7.67818H39.0008C39.1143 7.67818 39.9546 7.7177 40.8744 7.76287ZM35.7985 8.25405L36.0256 8.32745L36.0426 9.19688L36.0597 10.0607L35.8439 10.0212C35.032 9.86873 34.3904 9.8405 33.7885 9.94212C33.2775 10.0212 33.1015 10.1228 33.1015 10.3317C33.1015 10.6083 33.2605 10.6648 34.3336 10.7551C34.9127 10.8059 35.4351 10.8793 35.6565 10.9471C36.6558 11.2576 37.1214 11.9125 37.0646 12.9287C37.0306 13.4763 36.8773 13.8094 36.4571 14.2329C35.6111 15.0684 33.6977 15.4862 32.1022 15.1814L31.8127 15.1249L31.7729 14.278C31.7502 13.8094 31.7445 13.4142 31.7616 13.3973C31.7786 13.3804 31.9944 13.3973 32.2328 13.4425C32.9255 13.5667 33.9532 13.5441 34.4415 13.3917C34.8957 13.2505 34.9922 13.1715 34.9638 12.9457C34.9411 12.7142 34.7822 12.669 33.7204 12.5674C32.2953 12.4319 31.6934 12.1948 31.3017 11.6133C31.0575 11.2519 30.978 10.9584 30.978 10.4389C30.9724 9.6429 31.4209 9.01623 32.2783 8.60973C32.6246 8.44601 33.3854 8.24276 33.9248 8.16372C34.2655 8.11291 35.577 8.17501 35.7985 8.25405ZM48.5565 8.78475C49.0845 8.95977 49.5103 9.11784 49.5103 9.14043C49.5103 9.15736 49.2151 10.0381 48.8574 11.0882C48.3066 12.7029 48.2044 13.0586 48.2044 13.3465C48.2044 13.5836 48.2385 13.7473 48.3123 13.8659C48.4599 14.103 48.8915 14.3063 49.2662 14.3119C49.516 14.3119 49.5841 14.2893 49.7431 14.1425C49.9873 13.9111 50.0838 13.674 50.7822 11.585C51.1171 10.5857 51.4124 9.76711 51.4351 9.76711C51.4919 9.76711 53.2974 10.3712 53.3655 10.4107C53.4337 10.4559 52.1221 14.3063 51.878 14.7579C51.1342 16.1581 49.533 16.5138 47.7275 15.6725C46.4614 15.0854 45.8709 14.1313 46.0412 12.9682C46.115 12.4996 47.4663 8.46859 47.5515 8.46859C47.5799 8.46859 48.0341 8.60973 48.5565 8.78475ZM28.724 12.0085L28.6104 14.391L29.1555 15.4636C29.4507 16.0564 29.6949 16.5533 29.6949 16.5702C29.6949 16.5984 27.9064 17.5018 27.8496 17.5018C27.8325 17.5018 27.577 17.0106 27.2875 16.4065L26.7594 15.3169L24.7949 13.9675C23.7105 13.2279 22.8247 12.6069 22.8247 12.59C22.8247 12.5504 24.6814 11.6302 24.7609 11.6302C24.7949 11.6302 25.2492 11.9576 25.7715 12.3529C26.2939 12.7537 26.7481 13.0981 26.7878 13.1207C26.8446 13.1545 26.8616 12.9005 26.8503 11.873L26.8389 10.5857L27.8269 10.1002C28.3719 9.83485 28.8205 9.61467 28.8205 9.62032C28.8262 9.62596 28.7807 10.6987 28.724 12.0085ZM57.8283 13.0078C58.8503 13.3521 59.9631 14.2159 60.5252 15.108L60.6388 15.283L60.054 15.6951C59.736 15.9266 59.3954 16.1694 59.2988 16.2428L59.1171 16.3783L58.9468 16.079C58.7083 15.65 58.2144 15.1757 57.7942 14.9668C57.357 14.7523 56.8915 14.7297 56.494 14.9104C56.1704 15.0572 55.7729 15.4749 55.5572 15.8984C55.4152 16.175 55.3868 16.2992 55.3868 16.6549C55.3868 17.0219 55.4095 17.1178 55.5458 17.3493C55.8467 17.8574 56.5565 18.2639 57.3854 18.4107C57.5955 18.4502 57.7772 18.4841 57.7829 18.4898C57.7999 18.501 57.181 20.1665 57.147 20.2061C57.0845 20.2625 56.3748 20.0423 55.8865 19.8165C53.5416 18.7212 52.6615 16.8694 53.6097 14.9951C54.1548 13.9167 55.0008 13.1715 55.983 12.9005C56.4599 12.7706 57.2605 12.8214 57.8283 13.0078ZM24.5735 17.0445C25.5217 17.6147 26.2882 18.1002 26.2768 18.1228C26.2655 18.1454 25.9191 18.4502 25.5047 18.8003C24.9823 19.235 24.7211 19.4213 24.6587 19.3987C24.6076 19.3761 24.3577 19.235 24.0966 19.0826C23.8411 18.9245 23.614 18.8003 23.5969 18.8003C23.5515 18.8003 22.0185 20.0875 21.9504 20.1835C21.9163 20.2286 21.9788 20.4488 22.1434 20.8271C22.3478 21.3183 22.3762 21.4142 22.3081 21.482C21.9617 21.8151 20.8034 22.741 20.7751 22.7071C20.7183 22.645 18.2087 16.2032 18.2314 16.1807C18.2428 16.1694 18.7083 15.7798 19.2648 15.3112L20.2811 14.4644L21.5643 15.2378C22.274 15.6612 23.6253 16.4742 24.5735 17.0445ZM63.472 17.6203L64.1533 18.422L63.1086 19.3027C62.5352 19.7883 62.0866 20.1891 62.115 20.2004C62.1377 20.2117 62.8247 20.1383 63.6423 20.048C64.4543 19.952 65.181 19.873 65.2605 19.873C65.3911 19.873 65.5274 20.0141 66.8162 21.5272C66.8616 21.578 66.89 21.6344 66.8787 21.6457C66.8673 21.657 65.9702 21.7248 64.8801 21.7982L62.9099 21.928L62.8531 22.1256C62.8247 22.2385 62.609 23.1136 62.3705 24.079C62.1377 25.0388 61.9276 25.8744 61.8993 25.9252C61.8709 25.9986 61.6892 25.8179 61.0589 25.084L60.2641 24.1468L60.7069 22.5942C60.9567 21.7417 61.1441 21.036 61.1328 21.019C61.1157 21.0078 60.6558 21.386 60.0994 21.8546C59.3556 22.4869 59.0717 22.7015 59.0149 22.662C58.9695 22.6337 58.6572 22.2837 58.3109 21.8772L57.6863 21.1489L57.8396 20.9965C58.0554 20.7932 62.7396 16.8243 62.768 16.8243C62.7793 16.8243 63.0973 17.1856 63.472 17.6203ZM42.7538 17.5864C46.9213 18.0889 50.7424 19.6133 54.0242 22.0804C55.7956 23.4072 57.6977 25.3606 58.9752 27.1616C60.9113 29.8885 62.2115 32.9598 62.8191 36.2456C63.103 37.7643 63.1654 38.5152 63.1654 40.3952C63.1654 42.7156 62.9951 44.1044 62.4557 46.1538C61.3883 50.2639 59.3272 53.7812 56.2328 56.796C52.5025 60.4262 47.9887 62.566 42.697 63.2152C41.533 63.3564 38.6942 63.3564 37.5302 63.2152C33.5217 62.724 30.0015 61.386 26.7992 59.1447C25.005 57.8913 23.0235 55.983 21.7062 54.2385C19.191 50.9245 17.692 47.1983 17.164 42.964C17.0902 42.3373 17.0618 41.7332 17.0618 40.3952C17.0618 39.0572 17.0902 38.4531 17.164 37.8264C17.6296 34.0889 18.8616 30.7184 20.8545 27.7488C21.8368 26.2809 22.7112 25.2421 24.0511 23.9379C27.9858 20.1157 32.9142 17.9308 38.5806 17.4792C39.2563 17.4284 42.0213 17.4961 42.7538 17.5864ZM17.6069 21.29C18.9014 22.6281 19.9631 23.7403 19.9745 23.7629C19.9802 23.7855 19.7303 24.2258 19.4181 24.7339C18.9922 25.4284 18.8219 25.6542 18.7481 25.6373C18.697 25.6316 17.7602 25.3437 16.6643 25.0049C15.5742 24.6718 14.6771 24.4008 14.6658 24.4065C14.6601 24.4178 15.3301 25.1178 16.1533 25.9703C17.1186 26.9696 17.6466 27.5512 17.6239 27.6076C17.5614 27.7713 16.5508 29.3691 16.494 29.3917C16.4316 29.4142 10.01 27.4721 9.94752 27.41C9.91914 27.3874 10.3109 26.7212 10.9014 25.7897L11.1001 25.4735L12.917 26.2639C13.9163 26.6987 14.7964 27.0769 14.8758 27.1051C14.9553 27.139 14.3365 26.4785 13.5018 25.6485C12.6615 24.813 11.9802 24.1129 11.9802 24.0847C11.9802 24.0169 13.1839 22.0748 13.2236 22.0748C13.2463 22.0748 14.1775 22.3797 15.3017 22.7523C16.636 23.1926 17.3059 23.3903 17.2321 23.3225C17.1697 23.266 16.4316 22.6563 15.5969 21.9675C14.5409 21.0981 14.081 20.6859 14.1037 20.6295C14.1604 20.4771 15.1768 18.8567 15.2165 18.8567C15.2335 18.8567 16.3123 19.952 17.6069 21.29ZM67.9858 24.3274C68.9681 24.8073 69.8311 26.4502 69.9787 28.1214L70.0185 28.5448L69.2236 28.7537C68.7864 28.8666 68.389 28.9626 68.3435 28.9626C68.2811 28.9626 68.2584 28.8384 68.23 28.4375C68.1902 27.8391 68.0313 27.1842 67.8155 26.7043C67.6338 26.2978 67.5146 26.1792 67.2988 26.2075C67.0433 26.2357 67.0149 26.4898 67.1626 27.331C67.2307 27.7149 67.2988 28.1835 67.3159 28.3754C67.3897 29.0981 67.1228 29.9054 66.697 30.2272C66.3961 30.4587 65.9078 30.6563 65.5387 30.6902C64.6757 30.7805 63.8127 30.2272 63.1938 29.1941C62.7225 28.4037 62.3137 27.0317 62.3535 26.3599L62.3705 26.0607L63.1654 25.8461C63.6026 25.7276 63.9717 25.6316 63.9887 25.6316C64.0057 25.6316 64.0511 25.9139 64.0852 26.2526C64.1704 27.0148 64.335 27.6471 64.5792 28.1157C64.8063 28.5674 65.005 28.7255 65.2037 28.6351C65.2832 28.6013 65.3627 28.5053 65.3854 28.4262C65.4025 28.3472 65.3627 27.9238 65.2946 27.4834C65.1299 26.4502 65.1299 25.7671 65.3003 25.3267C65.6863 24.2936 66.9582 23.8193 67.9858 24.3274ZM10.0724 40.7396C10.7027 40.9033 11.5259 41.3888 12.0256 41.9026L12.2641 42.151L11.9404 42.247C11.4805 42.3881 10.873 42.693 10.5039 42.9696C10.3336 43.0995 10.1917 43.1842 10.1803 43.1503C10.169 43.1221 10.0668 42.9414 9.94752 42.7438C9.55576 42.0833 8.86875 41.5582 8.0625 41.2985C7.89217 41.2421 7.72751 41.1799 7.69912 41.1574C7.64802 41.1066 7.97166 40.8864 8.26122 40.7735C8.73816 40.5815 9.41381 40.5702 10.0724 40.7396ZM71.9205 40.7396C72.2612 40.8525 72.6473 41.0953 72.5849 41.1574C72.5565 41.1799 72.3918 41.2421 72.2215 41.2985C71.4152 41.5582 70.7282 42.0833 70.3364 42.7438C70.2172 42.9414 70.115 43.1221 70.1037 43.1503C70.0923 43.1842 69.9504 43.0995 69.78 42.9696C69.411 42.693 68.8034 42.3881 68.3435 42.247L68.0199 42.151L68.2584 41.9026C68.9 41.2477 69.8254 40.7678 70.7169 40.6323C71.0007 40.5871 71.631 40.6436 71.9205 40.7396ZM7.7559 41.6881C8.68706 42.0042 9.27755 42.4615 9.62389 43.1503L9.82261 43.5399L9.56711 43.8221C9.1867 44.2456 8.81197 44.8723 8.60757 45.4481L8.42588 45.9619L8.1136 45.6344C7.08024 44.5504 6.65441 43.1503 7.02346 42.0663C7.11431 41.7953 7.25625 41.5526 7.31871 41.5526C7.34142 41.5526 7.54014 41.6147 7.7559 41.6881ZM73.1697 41.8461C73.6977 42.8962 73.2832 44.4714 72.1704 45.6344L71.8581 45.9619L71.6764 45.4481C71.472 44.8723 71.0973 44.2456 70.7169 43.8221L70.4614 43.5399L70.6601 43.1503C70.8929 42.6874 71.3698 42.2018 71.8297 41.976C72.1988 41.784 72.846 41.5582 72.9539 41.5695C72.9993 41.5751 73.0959 41.6994 73.1697 41.8461ZM14.0412 42.7551C14.2172 42.8341 14.3648 42.9245 14.3648 42.9527C14.3648 43.0769 14.0071 44.0254 13.8709 44.2569C13.5018 44.8948 12.7978 45.3804 11.9688 45.5836C11.4521 45.7078 11.0547 45.8885 10.6516 46.1877C10.0895 46.6055 9.77151 47.108 9.40246 48.1298L9.36271 48.2428L9.27187 48.1298C8.86875 47.6104 8.74383 46.6845 8.96527 45.8772C9.18102 45.0924 9.58982 44.4432 10.2541 43.8052C10.8787 43.2124 11.3613 42.9245 12.0937 42.6986C12.7013 42.5123 13.5643 42.5349 14.0412 42.7551ZM68.1278 42.6817C68.8489 42.885 69.3939 43.2011 70.0298 43.8052C70.6941 44.4432 71.103 45.0924 71.3187 45.8772C71.5401 46.6845 71.4152 47.6104 71.0121 48.1298L70.9213 48.2428L70.8815 48.1298C70.5125 47.108 70.1945 46.6055 69.6324 46.1877C69.2293 45.8885 68.8318 45.7078 68.3152 45.5836C67.4862 45.3804 66.7822 44.8948 66.4131 44.2569C66.2768 44.031 65.9191 43.0826 65.9191 42.9527C65.9191 42.8906 66.3336 42.6874 66.5834 42.6309C66.9809 42.5349 67.6849 42.5631 68.1278 42.6817ZM15.0859 43.7939C15.8581 45.4368 14.5238 47.9153 12.4344 48.717C11.8553 48.9428 11.1796 49.0332 10.7254 48.9541C10.2995 48.8807 9.74312 48.638 9.77719 48.542C9.79422 48.5025 9.87371 48.2597 9.95888 48C10.1519 47.4298 10.4812 46.9217 10.8616 46.6224C11.2534 46.3176 11.4748 46.2159 12.0994 46.0409C12.7807 45.849 13.1214 45.6852 13.5359 45.3521C13.9731 45.0021 14.3478 44.4488 14.592 43.8052C14.8077 43.2237 14.8134 43.2237 15.0859 43.7939ZM65.692 43.8109C65.9362 44.4488 66.3109 45.0021 66.7481 45.3521C67.1626 45.6852 67.5032 45.849 68.1846 46.0409C68.8091 46.2159 69.0306 46.3176 69.4223 46.6224C69.8027 46.9217 70.132 47.4298 70.3251 48C70.4103 48.2597 70.4897 48.5025 70.5068 48.542C70.5408 48.638 69.9844 48.8807 69.5586 48.9541C69.1044 49.0332 68.4287 48.9428 67.8496 48.717C66.6232 48.2484 65.5558 47.1249 65.1413 45.8715C64.9596 45.3126 64.9369 44.4545 65.0902 44.0367C65.181 43.8052 65.4479 43.3027 65.4876 43.3027C65.499 43.3027 65.5898 43.5286 65.692 43.8109ZM56.9653 60.9456C57.2094 61.3013 57.4025 61.6118 57.4025 61.6401C57.4025 61.6627 56.8404 62.0635 56.1533 62.5208C55.4663 62.9838 54.8929 63.379 54.8758 63.4015C54.8588 63.4298 55.154 63.9266 55.279 64.0734C55.2903 64.0847 55.7048 63.8306 56.1931 63.5032C56.6871 63.1814 57.1583 62.8708 57.2378 62.82L57.3854 62.724L57.8169 63.3733C58.0611 63.729 58.2541 64.0452 58.2541 64.0677C58.2541 64.096 57.8283 64.4065 57.3059 64.7565C56.7779 65.1065 56.3294 65.4171 56.301 65.4396C56.2272 65.5074 56.6757 66.1736 56.7722 66.1397C56.812 66.1228 57.3911 65.7445 58.0611 65.2929C58.7254 64.8412 59.2932 64.4742 59.3215 64.4742C59.367 64.4742 60.2413 65.7332 60.2413 65.7953C60.2413 65.8292 56.0398 68.6577 55.9546 68.6859C55.9035 68.7029 52.2641 63.3902 52.2243 63.2378C52.2073 63.187 56.3975 60.3077 56.4997 60.302C56.5167 60.2964 56.7268 60.59 56.9653 60.9456ZM24.6132 61.0586C25.4479 61.2731 26.521 61.9562 27.1285 62.6619C27.5146 63.1023 27.7303 63.4354 27.6792 63.5088C27.6452 63.5709 26.2598 64.5307 26.2144 64.5307C26.1973 64.5307 26.1065 64.3895 26.01 64.2202C25.7715 63.8024 25.2378 63.283 24.8574 63.0967C24.4543 62.8991 23.9773 62.8878 23.5799 63.0628C23.0519 63.2943 22.5181 64.0395 22.4443 64.6436C22.3876 65.1065 22.5125 65.4114 22.9042 65.801C23.3074 66.2018 23.7389 66.422 24.3464 66.5462C24.5849 66.597 24.7949 66.6478 24.8006 66.6535C24.812 66.6591 24.6757 67.0487 24.494 67.5173C24.2385 68.1778 24.142 68.3698 24.0625 68.3698C23.8978 68.3698 23.0632 68.048 22.6601 67.8278C21.1555 67.0092 20.3265 65.8744 20.3208 64.638C20.3152 64.0508 20.4174 63.6556 20.7296 63.0571C21.2577 62.0522 22.115 61.3013 23.0121 61.0586C23.4096 60.9569 24.1988 60.9513 24.6132 61.0586ZM51.7985 64.3726C51.9461 64.7791 52.0483 65.1291 52.0256 65.1517C52.0029 65.1743 51.3499 65.4284 50.5778 65.7163C49.7999 66.0042 49.1697 66.2639 49.1697 66.2978C49.1697 66.4051 49.4138 67.0148 49.4536 67.0148C49.4763 67.0148 49.7715 66.9132 50.1122 66.7833C50.4528 66.6535 50.9638 66.4672 51.2477 66.3655L51.7701 66.1792L52.0597 66.9414C52.2186 67.3648 52.3435 67.7149 52.3379 67.7205C52.3265 67.7262 51.8212 67.9181 51.2137 68.1439C50.6061 68.3698 50.0895 68.573 50.0611 68.59C49.9986 68.6521 50.2825 69.3578 50.3734 69.3521C50.4131 69.3465 51.0831 69.1094 51.8553 68.8214C52.6274 68.5335 53.269 68.3077 53.2804 68.319C53.3144 68.3698 53.8254 69.7643 53.8254 69.8151C53.8254 69.8885 48.9993 71.6669 48.9426 71.6104C48.9198 71.5822 48.3805 70.1877 47.7559 68.5109C46.8702 66.1623 46.626 65.4509 46.6828 65.4171C46.7736 65.355 51.3897 63.633 51.4692 63.633C51.5032 63.6274 51.6509 63.9605 51.7985 64.3726ZM30.7566 64.2484C31.9206 64.525 32.9085 65.2364 33.3627 66.1228C33.8056 66.9866 33.7431 68.2286 33.2151 69.2731C32.4713 70.7353 31.0291 71.4298 29.4223 71.1023C28.2073 70.8539 27.1455 70.1143 26.6913 69.1941C26.4642 68.7368 26.4074 68.4432 26.4017 67.8278C26.3961 66.0494 27.6509 64.4404 29.2406 64.175C29.6267 64.1129 30.3251 64.1468 30.7566 64.2484ZM46.098 66.0946C46.132 66.3712 46.1775 66.7438 46.1945 66.9358L46.2286 67.2745L44.7637 67.4552C43.9518 67.5568 43.2818 67.6358 43.2648 67.6358C43.2477 67.6358 43.2534 67.8391 43.2875 68.0875C43.3499 68.6238 43.2023 68.59 44.6558 68.4037C45.2179 68.3303 45.6835 68.2738 45.6892 68.2794C45.7232 68.3077 45.8936 69.8941 45.8652 69.9224C45.8482 69.9393 45.3315 70.0183 44.7069 70.0974C44.088 70.1764 43.577 70.2442 43.5714 70.2498C43.56 70.2555 43.6168 70.7466 43.6963 71.3338C43.7701 71.9266 43.8269 72.446 43.8155 72.4912C43.8042 72.5533 43.577 72.6041 42.8105 72.7001C42.2655 72.7678 41.7999 72.8017 41.7829 72.7847C41.7374 72.7283 40.9312 66.2696 40.9653 66.2357C40.9993 66.1962 45.5132 65.6203 45.8255 65.609L46.0299 65.6034L46.098 66.0946ZM37.7176 66.0212C39.0575 66.1623 40.1647 66.2865 40.1817 66.3034C40.2215 66.343 40.0795 67.8786 40.0341 67.9294C40.0114 67.9576 39.3698 67.9125 38.609 67.8334C37.8425 67.7544 37.1782 67.6923 37.1214 67.6923C37.0476 67.6923 37.0192 67.777 36.9908 68.1157C36.9681 68.3528 36.9624 68.5561 36.9738 68.573C36.9908 68.5843 37.5075 68.6464 38.132 68.7142C38.7509 68.7763 39.2676 68.8384 39.279 68.8497C39.3017 68.8722 39.137 70.4643 39.1086 70.4926C39.0973 70.4982 38.5919 70.4587 37.9901 70.3966C37.3826 70.3345 36.8602 70.295 36.8205 70.3063C36.7807 70.3232 36.7183 70.7523 36.6558 71.4241C36.5934 72.0282 36.5309 72.5363 36.5139 72.5589C36.4685 72.6097 34.5664 72.4347 34.4983 72.3726C34.4699 72.3444 34.5834 70.9894 34.7765 69.0473C35.0604 66.2696 35.1228 65.7727 35.2023 65.7727C35.2477 65.7727 36.3833 65.8857 37.7176 66.0212Z" fill="#BD0707"/>
<path d="M40.7438 9.86874C40.7268 10.1962 40.7154 10.4672 40.7211 10.4785C40.7381 10.4954 41.6125 10.5124 41.885 10.5067C41.9986 10.5011 42.1348 10.4446 42.2427 10.343C42.3847 10.2188 42.4187 10.1454 42.4244 9.95342C42.4301 9.46789 42.2257 9.34368 41.3002 9.29852L40.7835 9.27594L40.7438 9.86874Z" fill="#BD0707"/>
<path d="M40.653 11.9238C40.653 12.0593 40.6359 12.3359 40.6132 12.5448L40.5792 12.9287H41.3286C42.22 12.9287 42.3733 12.8779 42.4755 12.5335C42.5607 12.2512 42.4642 11.9972 42.22 11.873C42.0781 11.7996 41.3286 11.7036 40.7552 11.6923C40.6757 11.6867 40.653 11.7375 40.653 11.9238Z" fill="#BD0707"/>
<path d="M20.2924 16.6323C20.582 17.3888 21.1555 18.6874 21.1895 18.6761C21.2633 18.6478 22.1945 17.8744 22.2002 17.8349C22.2002 17.8123 21.763 17.5131 21.2293 17.1687C20.6956 16.8186 20.2697 16.5815 20.2924 16.6323Z" fill="#BD0707"/>
<path d="M38.9213 18.7777C38.7963 18.789 38.3762 18.8285 37.9844 18.8624C35.4919 19.0713 32.7098 19.8673 30.3478 21.0473C28.1391 22.1425 25.8567 23.8419 24.2215 25.6034C20.8943 29.1884 18.9525 33.4509 18.4415 38.278C18.3506 39.1757 18.3506 41.5977 18.4415 42.5123C18.9411 47.3112 20.9 51.6133 24.2158 55.1814C25.8794 56.9711 28.1278 58.6422 30.4103 59.777C32.6132 60.8723 35.066 61.5949 37.7005 61.9167C38.8418 62.0522 41.3741 62.0522 42.5267 61.9111C47.2222 61.3465 51.2193 59.5511 54.7566 56.4121C56.6189 54.7579 58.4188 52.398 59.6054 50.0437C60.7467 47.7798 61.5075 45.1545 61.7857 42.5123C61.8822 41.6034 61.8822 39.187 61.7857 38.278C61.1611 32.3331 58.2995 27.139 53.5756 23.3846C52.9908 22.9216 51.5316 21.9393 50.8446 21.5554C48.2839 20.1157 45.2917 19.1672 42.3279 18.8567C41.7374 18.7946 39.3187 18.7382 38.9213 18.7777ZM47.279 24.8073C48.0171 25.0049 48.6643 25.4114 49.3173 26.1002C50.0213 26.8398 50.4188 27.6866 50.4188 28.4488C50.4131 29.29 49.9248 29.753 49.0447 29.753C47.3187 29.7473 45.2463 27.5907 45.3826 25.9365C45.4564 24.9936 46.2342 24.5307 47.279 24.8073ZM27.6849 29.3634C28.2016 29.5215 28.9567 29.9054 29.4053 30.2329C29.8254 30.5434 30.3024 30.9725 30.3819 31.1136C30.4273 31.2039 30.1661 31.6274 29.4791 32.5702L29.3769 32.7057L29.0135 32.3274C27.9745 31.2491 26.9468 30.9329 25.9816 31.379C24.8631 31.8984 24.2839 33.3888 24.6416 34.8116C24.8687 35.7036 25.5728 36.7819 26.3393 37.4029C26.6005 37.6175 26.6856 37.7135 26.6629 37.7981C26.6005 38.0917 26.0838 39.4467 26.0327 39.458C25.9418 39.4806 25.2719 38.9612 24.7609 38.4756C23.455 37.2279 22.6544 35.5399 22.6544 34.0099C22.6544 33.1178 22.9213 32.175 23.3982 31.3733C23.6934 30.8821 24.5735 29.9619 24.9936 29.7078C25.834 29.2053 26.7765 29.0868 27.6849 29.3634ZM34.7651 30.0579C38.6317 31.3451 44.758 36.4037 49.1867 41.9591C49.4252 42.2583 49.6239 42.5293 49.6239 42.5575C49.6239 42.6422 48.6246 43.1108 48.0284 43.3084C46.802 43.7149 45.6097 43.856 44.2697 43.7544C42.1462 43.5963 41.1413 43.1898 40.6587 42.2922C40.3634 41.7389 40.3123 41.3719 40.2555 39.4072C40.2158 37.9449 40.1874 37.5272 40.0852 37.0699C39.8808 36.1157 39.5401 35.4269 38.9326 34.7156C37.6438 33.2138 35.7417 32.2879 33.7318 32.1863L33.0277 32.1524L32.9255 31.8532C32.7836 31.4411 32.6814 30.7184 32.7268 30.4756C32.7665 30.2442 32.9482 29.9958 33.1242 29.9167C33.3513 29.8207 34.2882 29.8998 34.7651 30.0579ZM31.8467 32.4629C33.0788 36.144 37.7971 41.9591 43.1512 46.4079C45.9163 48.7057 48.5905 50.3655 50.5323 51.0035L51.2477 51.235L50.9979 51.4269C49.7999 52.3246 47.983 53.4312 46.4897 54.1708C43.7417 55.5314 41.3741 56.1863 38.9213 56.271C37.3542 56.3218 36.1732 56.1581 34.8105 55.7121C31.8467 54.7353 29.1044 52.319 27.6736 49.4284C26.8276 47.7233 26.4642 45.9619 26.5323 43.952C26.5891 42.3712 26.8219 41.1517 27.3954 39.4354C27.9234 37.849 28.5252 36.5335 29.445 34.9414C30.0469 33.8857 31.5345 31.6725 31.5969 31.7403C31.6026 31.7459 31.7161 32.0734 31.8467 32.4629ZM54.0582 32.9823C55.5401 33.7163 56.5167 35.314 56.9312 37.6852C57.0561 38.3966 57.0731 40.6605 56.9596 41.5526C56.8403 42.4954 56.5678 43.76 56.318 44.5335C55.6537 46.5547 54.7736 48.0564 53.4564 49.3832C52.8205 50.0268 52.758 50.072 52.5025 50.1058C51.8439 50.2018 50.8162 49.9026 49.3968 49.1969C48.8687 48.9315 48.4315 48.7001 48.4315 48.6775C48.4315 48.6549 48.7041 48.5533 49.0391 48.4516C49.8567 48.1976 50.6061 47.8419 51.3556 47.3451C51.9972 46.9216 52.9227 46.103 53.2122 45.7078C53.5529 45.2392 53.3258 44.7142 52.7751 44.7142C52.5252 44.7142 52.5025 44.7311 51.9915 45.2336C50.8219 46.4079 49.4365 47.1814 47.9376 47.5032C46.802 47.7516 46.9553 47.7798 46.132 47.1814C45.411 46.6619 43.895 45.4707 43.4635 45.0868L43.2364 44.8835L43.6622 44.9287C43.895 44.9513 44.599 44.9682 45.2236 44.9682C46.1718 44.9626 46.467 44.9456 47.0007 44.8384C48.7722 44.4883 50.4926 43.6528 51.5714 42.6309C52.1391 42.0889 52.5082 41.6034 52.8545 40.9315C53.4905 39.6951 53.7176 38.3684 53.5132 37.036C53.3939 36.2343 53.2463 35.8052 52.7353 34.789C52.3492 34.0268 52.2641 33.8123 52.247 33.5413C52.2186 33.1404 52.2754 33.0219 52.5877 32.8638C52.9681 32.6718 53.5132 32.7113 54.0582 32.9823ZM34.521 33.4848C36.213 33.7897 37.8765 34.964 38.5579 36.3303C38.9213 37.0586 39.0064 37.5949 39.0405 39.3507L39.0689 40.8468L38.5465 40.3105C37.4564 39.187 36.1675 37.5554 35.0547 35.8786C34.4983 35.0317 33.5557 33.4735 33.5557 33.3888C33.5557 33.355 34.0724 33.4058 34.521 33.4848Z" fill="black"/>
<path d="M46.1945 25.2477C45.9049 25.4171 45.7629 25.6881 45.7629 26.072C45.7629 27.139 46.8417 28.5504 48.1192 29.1433C48.4769 29.307 48.5678 29.3239 49.039 29.3296C49.516 29.3296 49.5727 29.3183 49.709 29.1884C49.9418 28.9739 50.0213 28.7763 50.0213 28.4093C50.0213 27.3874 49.0106 26.0325 47.7842 25.4284C47.347 25.2138 47.1994 25.1687 46.8417 25.1461C46.467 25.1235 46.3875 25.1348 46.1945 25.2477Z" fill="black"/>
<path d="M26.4017 29.6231C25.7828 29.6909 25.2037 29.9901 24.6302 30.5321C23.8921 31.2322 23.4322 31.9774 23.1881 32.8581C23.0461 33.3719 23.0405 34.6083 23.1824 35.1164C23.5515 36.4488 24.3577 37.6683 25.4876 38.5999L25.8566 38.8991L26.044 38.3797L26.2314 37.8603L25.8453 37.4876C24.4713 36.1778 23.8864 34.5857 24.2385 33.1178C24.4713 32.1581 25.005 31.4185 25.7147 31.0628C26.8048 30.5208 27.9063 30.7579 29.0192 31.7742L29.3428 32.0677L29.6437 31.633L29.9446 31.1983L29.6324 30.9217C28.9567 30.3176 28.0312 29.8264 27.2647 29.6683C26.89 29.5836 26.7878 29.5836 26.4017 29.6231Z" fill="black"/>
<path d="M33.1867 30.3966C33.1072 30.5152 33.0958 30.6168 33.1242 30.8991C33.1413 31.0967 33.1924 31.3677 33.2321 31.5088L33.3059 31.7572L33.8396 31.7911C35.6963 31.9097 37.5188 32.7283 38.8361 34.0437C40.2158 35.41 40.6473 36.6634 40.653 39.266C40.6586 41.5413 40.829 42.2018 41.533 42.6817C42.0838 43.06 42.8787 43.2576 44.2697 43.3592C45.8595 43.4778 47.3244 43.2406 48.6757 42.6309L49.0674 42.4559L48.8801 42.2188C47.7616 40.7904 46.5408 39.4354 44.917 37.8264C41.7034 34.6422 38.626 32.2879 36.0256 31.0233C34.907 30.4813 34.396 30.3119 33.7772 30.278C33.2946 30.2498 33.2832 30.2498 33.1867 30.3966Z" fill="black"/>
<path d="M31.1029 33.067C29.3087 35.6189 27.8382 38.7636 27.2874 41.2251C26.8502 43.1616 26.8048 45.036 27.1455 46.7184C27.8211 50.0381 30.4159 53.2562 33.6749 54.82C35.3499 55.6217 36.951 55.9435 38.9212 55.8758C40.7835 55.808 42.379 55.458 44.4003 54.6676C46.2002 53.9619 48.3918 52.7763 50.0156 51.6358C50.3165 51.4213 50.362 51.3705 50.2711 51.3423C49.7715 51.1672 49.1923 50.9132 48.5167 50.5631C43.2761 47.8758 36.1505 41.0049 32.8573 35.4721C32.4145 34.7269 31.8751 33.6711 31.6537 33.1122C31.5685 32.892 31.4833 32.6944 31.4549 32.6718C31.4322 32.6436 31.2732 32.8243 31.1029 33.067ZM37.2463 42.8567C38.66 43.218 39.6253 44.1609 40.0397 45.6005C40.1476 45.9675 40.1703 46.1708 40.1647 46.8313C40.1647 47.5032 40.1363 47.7064 40.0114 48.1863C39.5515 49.8913 38.2796 51.5286 36.7012 52.4375C35.7019 53.0134 34.4301 53.3352 33.3911 53.2787C32.6984 53.2392 32.2952 53.1319 31.6366 52.8101C29.814 51.9238 29.0873 49.7445 29.8424 47.4467C30.2342 46.2385 31.1086 45.0077 32.1306 44.206C33.7601 42.9301 35.6054 42.4446 37.2463 42.8567Z" fill="black"/>
<path d="M35.5373 43.1334C33.3968 43.3931 31.2903 45.0134 30.3989 47.091C29.7346 48.6493 29.8027 50.2527 30.5806 51.3931C30.9269 51.8956 31.2562 52.1722 31.8808 52.4827C32.5621 52.8158 33.0675 52.9231 33.8396 52.8836C36.5025 52.7424 38.9042 50.7269 39.6423 48.0169C39.7445 47.65 39.7672 47.4128 39.7672 46.7749C39.7616 46.0748 39.7445 45.9337 39.6139 45.5272C39.1427 44.1045 37.9333 43.2181 36.3379 43.1164C36.1051 43.0995 35.7417 43.1108 35.5373 43.1334ZM36.8489 44.4093C36.8829 44.4432 36.8659 44.5674 36.7864 44.7706C36.7183 44.94 36.6274 45.307 36.582 45.5893C36.4855 46.1821 36.3719 46.4644 36.0937 46.7749C35.7985 47.1136 35.401 47.3056 34.7878 47.4016C34.1008 47.5088 33.8056 47.6104 33.3911 47.8758C32.5451 48.4178 32.142 49.0783 31.9433 50.2414C31.8184 50.9527 31.7956 50.9866 31.6026 50.7382C30.9951 49.9478 31.0064 48.5363 31.631 47.3112C32.125 46.3345 33.181 45.2618 34.0951 44.8158C34.4188 44.6521 35.0036 44.4545 35.3783 44.3754C35.702 44.3133 36.7694 44.3303 36.8489 44.4093ZM38.2002 45.3747C38.8077 46.3402 38.6941 47.7403 37.8936 49.0727C37.5416 49.6598 36.6899 50.5293 36.0994 50.9132C35.2364 51.4721 34.2541 51.7601 33.4422 51.698C32.9085 51.6584 32.7949 51.6189 32.8517 51.4947C32.9937 51.1785 33.1015 50.7833 33.1526 50.3881C33.2321 49.8292 33.4252 49.4284 33.7602 49.1179C34.0895 48.8186 34.3961 48.6831 34.9241 48.6097C35.8325 48.4799 36.3095 48.2597 36.8829 47.6838C37.3939 47.1757 37.6154 46.7354 37.7573 45.928C37.9276 44.9795 37.939 44.9626 38.2002 45.3747Z" fill="black"/>
<path d="M35.2023 44.8327C34.3449 45.0529 33.6976 45.4368 33.0277 46.1143C32.4826 46.6619 32.2385 46.9894 31.9602 47.5653C31.6593 48.1863 31.5685 48.5815 31.5685 49.259L31.5742 49.8235L31.7275 49.3719C32.1817 48.0564 33.2321 47.2209 34.6742 47.0233C35.1966 46.9499 35.5827 46.7692 35.8211 46.4813C36.0312 46.2272 36.1334 45.9562 36.2186 45.4199C36.2526 45.1997 36.2981 44.9569 36.3151 44.8666L36.3492 44.7142L35.9915 44.7198C35.7927 44.7198 35.435 44.7706 35.2023 44.8327Z" fill="black"/>
<path d="M38.0752 46.3909C38.0525 46.5264 37.9333 46.837 37.8084 47.091C37.5302 47.6612 36.8999 48.3161 36.3549 48.5984C35.9744 48.796 35.2477 49.0049 34.9241 49.0049C34.4982 49.0106 33.9418 49.3775 33.7204 49.8066C33.6636 49.9252 33.5841 50.2075 33.5557 50.4389C33.5216 50.6648 33.4705 50.9414 33.4422 51.043C33.4081 51.1503 33.3854 51.2576 33.3854 51.2858C33.3854 51.3705 34.3052 51.2745 34.6913 51.1447C35.4407 50.9019 36.0085 50.5575 36.6274 49.9816C37.7232 48.9541 38.3421 47.5201 38.1661 46.4361L38.1206 46.1538L38.0752 46.3909Z" fill="black"/>
<path d="M52.7637 33.2082C52.5082 33.3324 52.6104 33.7615 53.076 34.5745C53.4109 35.1503 53.6721 35.8278 53.8425 36.5561C54.0014 37.2505 54.0128 38.5999 53.8595 39.2943C53.3598 41.5921 52.0029 43.2407 49.709 44.3529C48.3464 45.0078 47.0234 45.3239 45.4677 45.3747L44.4571 45.4086L45.0589 45.8829C45.3939 46.1426 45.9447 46.5603 46.2853 46.8031C46.9837 47.3056 47.0121 47.3112 47.6934 47.1701C49.181 46.8596 50.5323 46.1143 51.7019 44.957C52.3435 44.3303 52.5422 44.2343 52.9965 44.3303C53.5983 44.4601 53.9333 45.1207 53.6892 45.7022C53.587 45.9393 52.8545 46.7071 52.2924 47.1588C51.5146 47.7798 50.4471 48.3952 49.6806 48.6606L49.3684 48.7678L49.9361 49.0332C50.7481 49.4114 51.6054 49.6881 52.0994 49.722L52.5139 49.7558L52.9794 49.3098C54.8474 47.5088 56.0568 44.9852 56.494 41.9704C56.6473 40.9372 56.6984 39.2943 56.6132 38.4192C56.3634 35.9125 55.3868 34.0889 53.8765 33.338C53.462 33.1291 53.0305 33.0783 52.7637 33.2082Z" fill="black"/>
<path d="M34.538 34.3204C35.4918 35.9407 37.1554 38.199 38.3989 39.5709L38.6657 39.8701V39.3451C38.6657 38.6168 38.5692 37.5949 38.4613 37.1884C38.2513 36.3698 37.6664 35.5681 36.8432 34.9527C36.1391 34.422 35.2647 34.0212 34.5153 33.8857L34.2484 33.8349L34.538 34.3204Z" fill="black"/>
<path d="M8.84033 41.0388L8.63025 41.0727L8.95388 41.2421C9.41946 41.4848 10.0667 42.1059 10.3109 42.5575C10.3279 42.5858 11.4691 41.976 11.4691 41.9365C11.4691 41.9196 11.2931 41.7841 11.0717 41.6373C10.3847 41.18 9.45921 40.9315 8.84033 41.0388Z" fill="white"/>
<path d="M70.66 41.0445C70.2285 41.1122 69.638 41.355 69.2065 41.6429C68.9908 41.7841 68.8148 41.9196 68.8148 41.9365C68.8148 41.976 69.956 42.5858 69.973 42.5575C70.2172 42.1059 70.8588 41.4905 71.3414 41.2308C71.5628 41.1122 71.6423 41.0445 71.5628 41.0445C71.4947 41.0445 71.33 41.0332 71.1938 41.0219C71.0575 41.0049 70.819 41.0162 70.66 41.0445Z" fill="white"/>
<path d="M7.37544 42.2696C7.25052 42.7043 7.29027 43.3761 7.46628 43.8673C7.63094 44.3246 7.74449 44.5335 8.05109 44.9569L8.24414 45.2223L8.4826 44.7311C8.61887 44.4545 8.85734 44.0593 9.01631 43.8504C9.18097 43.6415 9.31156 43.4439 9.31156 43.41C9.31156 43.2914 9.02199 42.9132 8.72107 42.6422C8.49396 42.4333 8.2782 42.3091 7.94321 42.1792C7.69339 42.0833 7.47764 42.0042 7.46628 42.0042C7.4606 42.0042 7.42086 42.1228 7.37544 42.2696Z" fill="white"/>
<path d="M72.318 42.1849C72.0114 42.3034 71.7843 42.4389 71.5628 42.6422C71.2619 42.9132 70.9724 43.2914 70.9724 43.41C70.9724 43.4439 71.1029 43.6415 71.2676 43.8504C71.4266 44.0593 71.665 44.4545 71.8013 44.7311L72.0398 45.2223L72.2328 44.9569C72.7325 44.2625 72.9653 43.6528 72.9766 42.9922C72.9823 42.5744 72.8801 41.9986 72.7949 42.0099C72.7779 42.0099 72.5621 42.0889 72.318 42.1849Z" fill="white"/>
<path d="M12.2697 43.0487C11.6338 43.2294 11.083 43.5681 10.4698 44.1778C9.97019 44.669 9.86231 44.8102 9.6352 45.2788C9.49325 45.5723 9.34563 45.928 9.31724 46.0692C9.24911 46.3627 9.23208 47.1983 9.30021 47.1983C9.32292 47.1983 9.41377 47.0572 9.50461 46.8878C9.66927 46.5716 10.0951 46.0917 10.4471 45.832C10.7764 45.5836 11.2988 45.3522 11.8609 45.1941C12.4854 45.0191 12.6558 44.94 12.9908 44.669C13.303 44.4206 13.5813 44.0028 13.7686 43.5117L13.9106 43.1334L13.7573 43.0656C13.5074 42.964 12.6217 42.9527 12.2697 43.0487Z" fill="white"/>
<path d="M66.714 43.0035C66.6686 43.0204 66.5721 43.06 66.4983 43.0825L66.3734 43.1334L66.5153 43.5116C66.7027 44.0028 66.9809 44.4206 67.2932 44.669C67.6281 44.94 67.7985 45.019 68.423 45.1941C68.9851 45.3521 69.5075 45.5836 69.8368 45.832C70.1888 46.0917 70.6147 46.5716 70.7793 46.8878C70.8702 47.0572 70.961 47.1983 70.9894 47.1983C71.0518 47.1983 71.0348 46.3627 70.9667 46.0692C70.9383 45.928 70.7907 45.5723 70.6487 45.2787C70.4216 44.8101 70.3137 44.669 69.8141 44.1778C69.1895 43.5568 68.6388 43.218 67.9858 43.0487C67.6679 42.9696 66.89 42.9414 66.714 43.0035Z" fill="white"/>
<path d="M14.6487 44.6464C14.3591 45.2053 13.7743 45.7643 13.1668 46.0578C12.9056 46.1877 12.4911 46.3458 12.2413 46.4079C11.9972 46.47 11.7133 46.566 11.6168 46.6168C11.0263 46.916 10.6004 47.4015 10.362 48.0621L10.2257 48.429L10.4642 48.4855C10.907 48.5984 11.1114 48.6097 11.5146 48.5532C12.8432 48.3669 14.1377 47.3112 14.6828 45.9619C14.8474 45.5554 14.9439 44.8892 14.8872 44.5335L14.8474 44.2625L14.6487 44.6464Z" fill="white"/>
<path d="M65.3911 44.5561C65.2208 45.9957 66.4017 47.7177 67.9915 48.35C68.6331 48.6041 69.1895 48.6436 69.8198 48.4855L70.0582 48.4291L69.922 48.0621C69.6835 47.4015 69.2577 46.916 68.6672 46.6168C68.5707 46.566 68.2868 46.47 68.0426 46.4079C67.7928 46.3458 67.3783 46.1877 67.1171 46.0579C66.5153 45.7699 65.9305 45.211 65.6296 44.6408L65.4252 44.2512L65.3911 44.5561Z" fill="white"/>
<path d="M29.7459 65.9195C29.2633 66.0663 28.8261 66.6309 28.5934 67.4044C28.264 68.5166 28.8489 69.4425 29.8936 69.4425C30.2967 69.4425 30.5352 69.3409 30.8247 69.0529C31.3755 68.5053 31.6878 67.3705 31.4663 66.7269C31.2506 66.1171 30.3989 65.7163 29.7459 65.9195Z" fill="#BD0707"/>
</svg>
