<svg width="35" height="35" viewBox="0 0 35 35" fill="none" xmlns="http://www.w3.org/2000/svg">
<path d="M33.3914 12.8778H25.542L20.0242 2.23855C19.8263 1.8571 19.4919 1.57553 19.0822 1.44565C18.6726 1.31576 18.237 1.35323 17.8555 1.55106C17.7229 1.61983 17.6042 1.70487 17.5 1.80214C17.3957 1.70493 17.277 1.61983 17.1444 1.55106C16.763 1.35323 16.3273 1.31583 15.9177 1.44565C15.5081 1.57546 15.1736 1.8571 14.9758 2.23855L9.15961 13.453C8.96178 13.8345 8.92432 14.2701 9.0542 14.6797C9.0985 14.8195 9.1618 14.9498 9.23945 15.0697H1.60863C1.287 15.0697 1.02539 14.8081 1.02539 14.4864C1.02539 14.1649 1.28707 13.9032 1.60863 13.9032H7.4537C7.73685 13.9032 7.9664 13.6737 7.9664 13.3905C7.9664 13.1073 7.73685 12.8778 7.4537 12.8778H1.60863C0.72167 12.8778 0 13.5995 0 14.4864C0 15.222 0.496426 15.8434 1.17175 16.0343L4.14121 31.8711C4.33228 32.8905 5.22375 33.6303 6.2609 33.6303H28.7392C29.7763 33.6303 30.6677 32.8905 30.8589 31.8711L33.8283 16.0342C34.5036 15.8434 35 15.222 35 14.4864C35 13.5994 34.2783 12.8778 33.3914 12.8778ZM18.3276 2.4614C18.4659 2.38969 18.6239 2.37609 18.7724 2.42319C18.9209 2.47022 19.0422 2.57235 19.1139 2.71064L24.93 13.9252C25.0018 14.0635 25.0154 14.2215 24.9683 14.3699C24.9212 14.5185 24.8191 14.6398 24.6807 14.7115C24.5425 14.7832 24.3845 14.7968 24.236 14.7497C24.0875 14.7027 23.9662 14.6006 23.8945 14.4623L18.0784 3.24767C17.9303 2.9622 18.0422 2.60947 18.3276 2.4614ZM25.1548 16.0951L24.6697 21.0975H18.0127V16.0951H25.1548ZM17.5 4.3596L22.9843 14.9342C23.0085 14.981 23.0349 15.0261 23.0632 15.0697H11.9368C11.9651 15.0261 11.9915 14.981 12.0157 14.9343L12.5504 13.9033H20.354C20.6371 13.9033 20.8667 13.6738 20.8667 13.3906C20.8667 13.1074 20.6371 12.8779 20.354 12.8779H13.0822L17.5 4.3596ZM10.0699 13.9251L15.8861 2.71057C15.9578 2.57228 16.0791 2.47015 16.2276 2.42312C16.2857 2.40466 16.3453 2.39557 16.4045 2.39557C16.4968 2.39557 16.5882 2.41772 16.6724 2.46133C16.9578 2.60947 17.0697 2.96213 16.9216 3.2476L11.1054 14.4622C11.0337 14.6005 10.9124 14.7026 10.7639 14.7496C10.6155 14.7966 10.4575 14.7831 10.3191 14.7113C10.1808 14.6396 10.0787 14.5184 10.0317 14.3698C9.98457 14.2214 9.99817 14.0635 10.0699 13.9251ZM2.2264 16.0951H8.81501L9.30016 21.0975H3.16436L2.2264 16.0951ZM3.35665 22.1229H9.39962L9.88477 27.1252H4.29454L3.35665 22.1229ZM6.26083 32.605C5.71683 32.605 5.24925 32.2169 5.14903 31.6822L4.48684 28.1506H9.98416L10.4162 32.605H6.26083ZM16.9873 32.605H11.4463L11.0143 28.1506H16.9873V32.605ZM16.9873 27.1252H10.9149L10.4297 22.1229H16.9873V27.1252ZM16.9873 21.0975H10.3303L9.84519 16.0951H16.9873V21.0975ZM23.5537 32.605H18.0127V28.1506H23.9857L23.5537 32.605ZM24.0851 27.1253H18.0127V22.1229H24.5703L24.0851 27.1253ZM29.851 31.6822C29.7508 32.2169 29.2831 32.605 28.7391 32.605H24.5838L25.0158 28.1506H30.5132L29.851 31.6822ZM30.7055 27.1253H25.1153L25.6004 22.1229H31.6434L30.7055 27.1253ZM31.8356 21.0975H25.6999L26.1851 16.0951H32.7736L31.8356 21.0975ZM33.3914 15.0697H33.383C33.3827 15.0697 33.3824 15.0697 33.3821 15.0697H25.7605C25.8382 14.9499 25.9014 14.8196 25.9458 14.6798C26.0267 14.4246 26.0426 14.1593 25.9953 13.9033H33.3914C33.713 13.9033 33.9746 14.1649 33.9746 14.4865C33.9746 14.8081 33.7129 15.0697 33.3914 15.0697Z" fill="#BD0707"/>
</svg>
