<svg width="18" height="20" viewBox="0 0 18 20" fill="none" xmlns="http://www.w3.org/2000/svg">
<path d="M9 17.2322C9.32359 17.2322 9.58594 16.9698 9.58594 16.6462V8.77869C9.58594 8.45509 9.32359 8.19275 9 8.19275C8.67641 8.19275 8.41406 8.45509 8.41406 8.77869V16.6462C8.41406 16.9698 8.67641 17.2322 9 17.2322Z" fill="#BD0707"/>
<path d="M5.77385 16.7012C5.80432 17.024 6.09084 17.26 6.41229 17.2295C6.73447 17.1991 6.97096 16.9132 6.94053 16.591L6.19764 8.72351C6.16721 8.40136 5.8819 8.1648 5.5592 8.19527C5.23701 8.2257 5.00053 8.51152 5.03096 8.83371L5.77385 16.7012Z" fill="#BD0707"/>
<path d="M11.588 17.2295C11.9098 17.2599 12.196 17.0237 12.2264 16.7013L12.9693 8.83373C12.9998 8.51154 12.7632 8.22572 12.4411 8.19529C12.1184 8.16467 11.8331 8.40139 11.8027 8.72354L11.0598 16.5911C11.0293 16.9132 11.2659 17.1991 11.588 17.2295Z" fill="#BD0707"/>
<path d="M1.25195 6.59668H1.60223L3.29941 19.4905C3.33777 19.7821 3.58629 20 3.88035 20H14.12C14.4141 20 14.6625 19.7821 14.7009 19.4905L16.3981 6.59668H16.7484C17.072 6.59668 17.3343 6.33434 17.3343 6.01074V3.44711C17.3343 3.12352 17.072 2.86117 16.7484 2.86117H11.7344V2.63027C11.7344 1.17996 10.5545 0 9.10418 0H8.89617C7.44586 0 6.2659 1.17996 6.2659 2.63027V2.86117H1.25195C0.928359 2.86117 0.666016 3.12352 0.666016 3.44711V6.01074C0.666016 6.33434 0.92832 6.59668 1.25195 6.59668ZM13.6061 18.8281H4.39418L2.78422 6.59668H15.2161L13.6061 18.8281ZM7.43773 2.63027C7.43773 1.82613 8.09199 1.17188 8.89613 1.17188H9.10414C9.90828 1.17188 10.5625 1.82613 10.5625 2.63027V2.86117H7.43773V2.63027ZM1.83789 4.03305H16.1625V5.4248C16.0372 5.4248 1.99414 5.4248 1.83789 5.4248V4.03305Z" fill="#BD0707"/>
</svg>
