<svg width="40" height="50" viewBox="0 0 40 50" fill="none" xmlns="http://www.w3.org/2000/svg">
<path d="M35.672 26.3018C38.162 25.7625 40 23.9356 40 21.7699C40 19.753 38.4062 18.0295 36.176 17.3664C35.5615 11.1589 29.4954 6.16447 21.8293 5.47131V3.75969C21.8293 1.68657 19.7269 0 17.1428 0H5.60157C4.5913 0 3.77226 0.657058 3.77226 1.46752C3.77226 2.27798 4.5913 2.93504 5.60157 2.93504H17.1428C17.7096 2.93504 18.1707 3.30495 18.1707 3.75969V5.47131C10.5046 6.16447 4.43862 11.1589 3.82409 17.3664C1.59393 18.0295 0 19.753 0 21.7699C0 23.9401 1.8454 25.7702 4.34313 26.3053L7.65819 48.7055C7.76746 49.4439 8.54784 50 9.47481 50H30.828C31.762 50 32.546 49.4355 32.6467 48.6906L34.992 31.3337C34.9922 31.3324 34.9923 31.3309 34.9926 31.3295L35.672 26.3018ZM8.051 26.4642H18.1707V29.7139H8.53198L8.051 26.4642ZM21.8293 26.4642H31.97L31.5308 29.7139H21.8292V26.4642H21.8293ZM34.1484 23.5292H21.8293V20.0105H34.1484C35.3577 20.0105 36.3414 20.7997 36.3414 21.7698C36.3414 22.7399 35.3576 23.5292 34.1484 23.5292ZM32.4602 17.0755H21.8293V8.43012C27.3555 9.07926 31.7255 12.6234 32.4602 17.0755ZM18.1707 8.43012V17.0755H7.53989C8.27466 12.6234 12.6445 9.07926 18.1707 8.43012ZM5.85169 20.0105H18.1708V23.5292H5.85169C4.6424 23.5292 3.65873 22.74 3.65873 21.7699C3.65873 20.7998 4.6424 20.0105 5.85169 20.0105ZM29.1864 47.065H11.0998L8.96638 32.6488H18.1708V42.7575C18.1708 43.568 18.9899 44.225 20.0001 44.225C21.0104 44.225 21.8294 43.568 21.8294 42.7575V32.6489H31.1345L29.1864 47.065Z" fill="#BD0707"/>
<path d="M25.5953 37.4148C24.7761 37.6042 24.3032 38.2905 24.5392 38.9478C24.7752 39.605 25.6307 39.9843 26.4501 39.795C27.2694 39.6057 27.7422 38.9194 27.5062 38.2621C27.2701 37.6048 26.4146 37.2255 25.5953 37.4148Z" fill="#BD0707"/>
<path d="M13.4016 34.9372C12.5823 35.1265 12.1095 35.8128 12.3455 36.4701C12.5815 37.1274 13.437 37.5067 14.2564 37.3174C15.0758 37.1281 15.5485 36.4418 15.3125 35.7844C15.0764 35.1272 14.2209 34.7478 13.4016 34.9372Z" fill="#BD0707"/>
</svg>
