<svg width="40" height="40" viewBox="0 0 40 40" fill="none" xmlns="http://www.w3.org/2000/svg">
<g clip-path="url(#clip0)">
<path d="M8.75252 10.0031V35.625C8.75252 38.0369 10.7156 40 13.1275 40H26.8725C29.2844 40 31.2475 38.0369 31.2475 35.625V10.0031C31.2475 7.805 29.615 5.985 27.5 5.68062V5C27.8456 5 28.125 4.72062 28.125 4.375V0.625C28.125 0.279375 27.8456 0 27.5 0H12.5C12.1544 0 11.875 0.279375 11.875 0.625V4.375C11.875 4.72062 12.1544 5 12.5 5V5.68125C10.385 5.98563 8.75252 7.805 8.75252 10.0031ZM13.125 1.25H26.875V3.75H13.125V1.25ZM29.3681 37.4863C29.3581 37.1494 29.0856 36.8787 28.7469 36.8787H28.74C28.395 36.8787 28.1188 37.1581 28.1188 37.5037C28.1188 37.8425 28.3919 38.115 28.7281 38.125C28.2081 38.5125 27.5694 38.75 26.8725 38.75H13.1275C11.4044 38.75 10.0025 37.3481 10.0025 35.625V11.2481H29.9975V35.625C29.9975 36.3244 29.7581 36.9644 29.3681 37.4863ZM29.9969 9.99813H10.0031C10.0056 8.27938 11.405 6.88125 13.125 6.88125H26.875C26.8756 6.88125 26.8763 6.88062 26.8769 6.88062C28.5963 6.88188 29.9944 8.27938 29.9969 9.99813ZM26.25 5.63125H13.75V5.00125H26.25V5.63125Z" fill="#BD0707"/>
<path d="M26.25 16.2495H13.75C13.4044 16.2495 13.125 16.5289 13.125 16.8745V30.6295C13.125 30.9751 13.4044 31.2545 13.75 31.2545H26.25C26.5956 31.2545 26.875 30.9751 26.875 30.6295V16.8745C26.875 16.5289 26.5956 16.2495 26.25 16.2495ZM25.625 30.0045H14.375V17.4995H25.625V30.0045Z" fill="#BD0707"/>
<path d="M11.2469 34.3787H11.24C10.895 34.3787 10.6188 34.658 10.6188 35.0037C10.6188 35.3493 10.9013 35.6287 11.2469 35.6287C11.5919 35.6287 11.8719 35.3493 11.8719 35.0037C11.8719 34.658 11.5919 34.3787 11.2469 34.3787Z" fill="#BD0707"/>
<path d="M13.7469 36.8787H13.74C13.395 36.8787 13.1188 37.158 13.1188 37.5037C13.1188 37.8493 13.4013 38.1287 13.7469 38.1287C14.0919 38.1287 14.3719 37.8493 14.3719 37.5037C14.3719 37.158 14.0919 36.8787 13.7469 36.8787Z" fill="#BD0707"/>
<path d="M11.2469 29.3787H11.24C10.895 29.3787 10.6188 29.658 10.6188 30.0037C10.6188 30.3493 10.9013 30.6287 11.2469 30.6287C11.5919 30.6287 11.8719 30.3493 11.8719 30.0037C11.8719 29.658 11.5919 29.3787 11.2469 29.3787Z" fill="#BD0707"/>
<path d="M13.7469 31.8787H13.74C13.395 31.8787 13.1188 32.158 13.1188 32.5037C13.1188 32.8493 13.4013 33.1287 13.7469 33.1287C14.0919 33.1287 14.3719 32.8493 14.3719 32.5037C14.3719 32.158 14.0919 31.8787 13.7469 31.8787Z" fill="#BD0707"/>
<path d="M16.2469 34.3787H16.24C15.895 34.3787 15.6188 34.658 15.6188 35.0037C15.6188 35.3493 15.9013 35.6287 16.2469 35.6287C16.5919 35.6287 16.8719 35.3493 16.8719 35.0037C16.8719 34.658 16.5919 34.3787 16.2469 34.3787Z" fill="#BD0707"/>
<path d="M18.7469 36.8787H18.74C18.395 36.8787 18.1188 37.158 18.1188 37.5037C18.1188 37.8493 18.4013 38.1287 18.7469 38.1287C19.0919 38.1287 19.3719 37.8493 19.3719 37.5037C19.3719 37.158 19.0919 36.8787 18.7469 36.8787Z" fill="#BD0707"/>
<path d="M11.2469 24.3787H11.24C10.895 24.3787 10.6188 24.658 10.6188 25.0037C10.6188 25.3493 10.9013 25.6287 11.2469 25.6287C11.5919 25.6287 11.8719 25.3493 11.8719 25.0037C11.8719 24.658 11.5919 24.3787 11.2469 24.3787Z" fill="#BD0707"/>
<path d="M18.7469 31.8787H18.74C18.395 31.8787 18.1188 32.158 18.1188 32.5037C18.1188 32.8493 18.4013 33.1287 18.7469 33.1287C19.0919 33.1287 19.3719 32.8493 19.3719 32.5037C19.3719 32.158 19.0919 31.8787 18.7469 31.8787Z" fill="#BD0707"/>
<path d="M21.2469 34.3787H21.24C20.895 34.3787 20.6188 34.658 20.6188 35.0037C20.6188 35.3493 20.9012 35.6287 21.2469 35.6287C21.5919 35.6287 21.8719 35.3493 21.8719 35.0037C21.8719 34.658 21.5919 34.3787 21.2469 34.3787Z" fill="#BD0707"/>
<path d="M23.7469 36.8787H23.74C23.395 36.8787 23.1188 37.158 23.1188 37.5037C23.1188 37.8493 23.4012 38.1287 23.7469 38.1287C24.0919 38.1287 24.3719 37.8493 24.3719 37.5037C24.3719 37.158 24.0919 36.8787 23.7469 36.8787Z" fill="#BD0707"/>
<path d="M11.2469 19.3787H11.24C10.895 19.3787 10.6188 19.658 10.6188 20.0037C10.6188 20.3493 10.9013 20.6287 11.2469 20.6287C11.5919 20.6287 11.8719 20.3493 11.8719 20.0037C11.8719 19.658 11.5919 19.3787 11.2469 19.3787Z" fill="#BD0707"/>
<path d="M23.7469 31.8787H23.74C23.395 31.8787 23.1188 32.158 23.1188 32.5037C23.1188 32.8493 23.4012 33.1287 23.7469 33.1287C24.0919 33.1287 24.3719 32.8493 24.3719 32.5037C24.3719 32.158 24.0919 31.8787 23.7469 31.8787Z" fill="#BD0707"/>
<path d="M26.2469 34.3787H26.24C25.895 34.3787 25.6188 34.658 25.6188 35.0037C25.6188 35.3493 25.9012 35.6287 26.2469 35.6287C26.5919 35.6287 26.8719 35.3493 26.8719 35.0037C26.8719 34.658 26.5919 34.3787 26.2469 34.3787Z" fill="#BD0707"/>
<path d="M11.2469 14.3787H11.24C10.895 14.3787 10.6188 14.658 10.6188 15.0037C10.6188 15.3493 10.9013 15.6287 11.2469 15.6287C11.5919 15.6287 11.8719 15.3493 11.8719 15.0037C11.8719 14.658 11.5919 14.3787 11.2469 14.3787Z" fill="#BD0707"/>
<path d="M28.7469 31.8787H28.74C28.395 31.8787 28.1188 32.158 28.1188 32.5037C28.1188 32.8493 28.4012 33.1287 28.7469 33.1287C29.0919 33.1287 29.3719 32.8493 29.3719 32.5037C29.3719 32.158 29.0919 31.8787 28.7469 31.8787Z" fill="#BD0707"/>
<path d="M13.7469 13.1287C14.0919 13.1287 14.3719 12.8493 14.3719 12.5037C14.3719 12.158 14.0919 11.8787 13.7469 11.8787H13.74C13.395 11.8787 13.1188 12.158 13.1188 12.5037C13.1188 12.8493 13.4013 13.1287 13.7469 13.1287Z" fill="#BD0707"/>
<path d="M16.2469 15.6287C16.5919 15.6287 16.8719 15.3493 16.8719 15.0037C16.8719 14.658 16.5919 14.3787 16.2469 14.3787H16.24C15.895 14.3787 15.6188 14.658 15.6188 15.0037C15.6188 15.3493 15.9013 15.6287 16.2469 15.6287Z" fill="#BD0707"/>
<path d="M28.7469 26.8787H28.74C28.395 26.8787 28.1188 27.158 28.1188 27.5037C28.1188 27.8493 28.4012 28.1287 28.7469 28.1287C29.0919 28.1287 29.3719 27.8493 29.3719 27.5037C29.3719 27.158 29.0919 26.8787 28.7469 26.8787Z" fill="#BD0707"/>
<path d="M18.7469 13.1287C19.0919 13.1287 19.3719 12.8493 19.3719 12.5037C19.3719 12.158 19.0919 11.8787 18.7469 11.8787H18.74C18.395 11.8787 18.1188 12.158 18.1188 12.5037C18.1188 12.8493 18.4013 13.1287 18.7469 13.1287Z" fill="#BD0707"/>
<path d="M21.2469 15.6287C21.5919 15.6287 21.8719 15.3493 21.8719 15.0037C21.8719 14.658 21.5919 14.3787 21.2469 14.3787H21.24C20.895 14.3787 20.6188 14.658 20.6188 15.0037C20.6188 15.3493 20.9012 15.6287 21.2469 15.6287Z" fill="#BD0707"/>
<path d="M28.7469 21.8787H28.74C28.395 21.8787 28.1188 22.158 28.1188 22.5037C28.1188 22.8493 28.4012 23.1287 28.7469 23.1287C29.0919 23.1287 29.3719 22.8493 29.3719 22.5037C29.3719 22.158 29.0919 21.8787 28.7469 21.8787Z" fill="#BD0707"/>
<path d="M23.7469 13.1287C24.0919 13.1287 24.3719 12.8493 24.3719 12.5037C24.3719 12.158 24.0919 11.8787 23.7469 11.8787H23.74C23.395 11.8787 23.1188 12.158 23.1188 12.5037C23.1188 12.8493 23.4012 13.1287 23.7469 13.1287Z" fill="#BD0707"/>
<path d="M26.2469 15.6287C26.5919 15.6287 26.8719 15.3493 26.8719 15.0037C26.8719 14.658 26.5919 14.3787 26.2469 14.3787H26.24C25.895 14.3787 25.6188 14.658 25.6188 15.0037C25.6188 15.3493 25.9012 15.6287 26.2469 15.6287Z" fill="#BD0707"/>
<path d="M28.7469 16.8787H28.74C28.395 16.8787 28.1188 17.158 28.1188 17.5037C28.1188 17.8493 28.4012 18.1287 28.7469 18.1287C29.0919 18.1287 29.3719 17.8493 29.3719 17.5037C29.3719 17.158 29.0919 16.8787 28.7469 16.8787Z" fill="#BD0707"/>
<path d="M28.7469 11.8787H28.74C28.395 11.8787 28.1188 12.158 28.1188 12.5037C28.1188 12.8493 28.4012 13.1287 28.7469 13.1287C29.0919 13.1287 29.3719 12.8493 29.3719 12.5037C29.3719 12.158 29.0919 11.8787 28.7469 11.8787Z" fill="#BD0707"/>
<path d="M15.6638 22.72C15.6713 22.74 15.6788 22.7581 15.6881 22.7769C15.6963 22.7931 15.7006 22.8106 15.7094 22.8262L19.4631 29.075C19.5763 29.2631 19.78 29.3781 19.9988 29.3781C20.2188 29.3781 20.4219 29.2625 20.5344 29.075L24.2831 22.8262C24.2944 22.8075 24.2994 22.7869 24.3088 22.7668C24.3144 22.7544 24.32 22.7431 24.3244 22.73C24.3644 22.6269 24.3763 22.5175 24.36 22.4094C24.3163 21.2675 23.5081 20.3225 22.43 20.0737C22.1775 18.9612 21.1844 18.1262 19.9956 18.1262C18.8069 18.1262 17.815 18.9606 17.5619 20.0731C16.4519 20.3275 15.6194 21.3187 15.6194 22.5056C15.6194 22.5062 15.62 22.5075 15.62 22.5081C15.6213 22.5806 15.6381 22.6512 15.6638 22.72ZM19.9981 27.5387L17.35 23.1294H19.9894C19.9919 23.1294 19.9931 23.1306 19.9956 23.1306C19.9981 23.1306 19.9994 23.1294 20.0019 23.1294H22.645L19.9981 27.5387ZM22.9456 21.8794H20.795C21.0125 21.5081 21.41 21.2556 21.8706 21.2556C22.3313 21.2556 22.7281 21.5081 22.9456 21.8794ZM19.9963 19.3762C20.5075 19.3762 20.9469 19.6856 21.1406 20.1268C20.6906 20.265 20.2975 20.5231 19.995 20.8693C19.6931 20.5237 19.3006 20.2662 18.8519 20.1275C19.045 19.6862 19.485 19.3762 19.9963 19.3762ZM18.12 21.2556C18.58 21.2556 18.9781 21.5081 19.1956 21.8794H17.045C17.2619 21.5081 17.66 21.2556 18.12 21.2556Z" fill="#BD0707"/>
</g>
<defs>
<clipPath id="clip0">
<rect width="40" height="40" fill="white"/>
</clipPath>
</defs>
</svg>
